<?xml version="1.0" encoding="UTF-8"?>
<svg width="42px" height="42px" viewBox="0 0 42 42" version="1.1" xmlns="http://www.w3.org/2000/svg" xmlns:xlink="http://www.w3.org/1999/xlink">
    <title>apple-logo</title>
    <g id="apple-logo" stroke="none" stroke-width="1" fill="none" fill-rule="evenodd">
        <rect id="Box" fill-opacity="0.05" fill="#001D2F" x="0" y="0" width="42" height="42" rx="5"></rect>
        <path d="M23.8808153,16.4118449 L24.1487668,16.4253205 C24.7495574,16.4493301 26.4365571,16.6547464 27.5178547,18.1553058 C27.4309518,18.2056681 25.505342,19.2684317 25.5275963,21.4735621 C25.5504227,23.848317 27.5129299,24.7981705 27.9248939,24.9711655 L27.9894995,24.9970844 L27.9894995,24.9970844 L28,25.0009469 C27.9787118,25.0627636 27.6131128,26.2530297 26.7252514,27.4826287 C25.9572061,28.5441368 25.160009,29.6025609 23.9062262,29.6239261 C22.6704273,29.6459249 22.2743674,28.9326644 20.864118,28.9326644 C19.4550084,28.9326644 19.0150941,29.6025603 17.8467175,29.6459249 C16.6354881,29.689007 15.711789,28.4964152 14.9389818,27.4392251 C13.3555816,25.2742341 12.1469439,21.3219096 13.7706167,18.6532301 C14.5763222,17.3282173 16.0178419,16.4888491 17.5827505,16.4682511 C18.7712409,16.4460845 19.8955881,17.2256595 20.6217386,17.2256595 C21.349867,17.2256595 22.7146156,16.2890066 24.1487668,16.4253205 Z M23.5697729,12 C23.6816384,13.1199284 23.2733471,14.2430902 22.664855,15.0524857 C22.0560538,15.8603237 21.0579954,16.4876917 20.0809628,16.4043191 C19.9471364,15.307838 20.4406752,14.1644826 21.0046122,13.4484774 C21.6319816,12.6416081 22.6939362,12.0381858 23.5697729,12 Z" id="Combined-Shape" fill="#001D2F"></path>
    </g>
</svg>