<?xml version="1.0" encoding="UTF-8"?>
<svg width="42px" height="42px" viewBox="0 0 42 42" version="1.1" xmlns="http://www.w3.org/2000/svg" xmlns:xlink="http://www.w3.org/1999/xlink">
    <title>android-logo</title>
    <g id="android-logo" stroke="none" stroke-width="1" fill="none" fill-rule="evenodd">
        <rect id="Box" fill-opacity="0.05" fill="#001D2F" x="0" y="0" width="42" height="42" rx="5"></rect>
        <path d="M14.5939572,17.7079145 C13.9900354,17.7076182 13.5005503,18.1962475 13.5004013,18.7972036 L13.5011463,23.3579414 C13.5012953,23.9609749 13.9910784,24.4476753 14.5951493,24.447527 C15.1995181,24.447527 15.6891523,23.9608266 15.6885579,23.3580898 L15.6885579,18.7966101 C15.6882582,18.1958023 15.1981771,17.7076182 14.5939572,17.7079145 M24.1772865,12.2240788 C24.2179651,12.1515189 24.191293,12.0592239 24.1175349,12.0181215 C24.0430319,11.9787996 23.9510951,12.0055088 23.9116085,12.0785138 L23.1405018,13.48119 C22.4917291,13.1936214 21.7656222,13.0324761 20.9973466,13.033218 C20.2311571,13.0324761 19.5053483,13.1931762 18.8592577,13.4791126 L18.0872569,12.0799977 C18.0471743,12.0062507 17.9547905,11.9795416 17.8819265,12.0197537 C17.8077214,12.0596691 17.7804533,12.1521124 17.821728,12.2245239 L18.5853844,13.6117681 C17.0848927,14.3823275 16.071055,15.8498476 16.0719467,17.5347505 L25.9239369,17.5335635 C25.9243833,15.849254 24.9123337,14.3847016 23.413928,13.6122133 L24.1772865,12.2240788 Z M18.3448885,15.3462315 C18.3448885,15.1202423 18.5293581,14.9344652 18.7570395,14.9346134 C18.9854659,14.9344652 19.1702335,15.1202423 19.1705317,15.3462315 C19.1706805,15.5729626 18.9854659,15.7572558 18.7565925,15.7574042 C18.5299541,15.756959 18.3448885,15.5732593 18.3448885,15.3462315 Z M23.24272,15.7565146 C23.0150386,15.7568106 22.829675,15.5729626 22.829675,15.3453412 C22.8305691,15.1197971 23.0147406,14.9340201 23.242869,14.9331298 C23.4695073,14.9338717 23.655318,15.1197971 23.6551696,15.3454895 C23.655467,15.5726658 23.4702524,15.7566623 23.24272,15.7565146 M16.1121807,17.9137239 L16.1138198,24.9820069 C16.1133727,25.6249557 16.6356392,26.1440038 17.2808358,26.1440038 L18.0754854,26.1443006 L18.0763795,28.5576218 C18.0762305,29.1585779 18.5667587,29.6470588 19.1693394,29.6470588 C19.7737083,29.6470588 20.2633424,29.1581328 20.2634914,28.5568798 L20.2628954,26.1441522 L21.7393971,26.1437071 L21.7399932,28.5568798 C21.7399932,29.1573909 22.2306704,29.6469104 22.8334002,29.6457234 C23.437769,29.6461685 23.9277012,29.1572425 23.9275522,28.5559895 L23.9268071,26.1434103 L24.7242879,26.1428167 C25.3679944,26.1431135 25.891602,25.6234719 25.8918999,24.9803747 L25.8905589,17.9120916 L16.1121807,17.9137239 Z M28.4996562,18.7955714 C28.4995073,18.1938733 28.010022,17.7062827 27.4058022,17.7065779 C26.8018804,17.7059859 26.3125442,18.1943185 26.3125442,18.7960165 L26.3134383,23.3570511 C26.3132893,23.9591944 26.8026255,24.4458947 27.4069943,24.446043 C28.0110652,24.4458947 28.5002522,23.9591944 28.5004013,23.3564576 L28.4996562,18.7955714 Z" id="Shape" fill="#001D2F"></path>
    </g>
</svg>