<?xml version="1.0" encoding="UTF-8"?>
<svg width="42px" height="42px" viewBox="0 0 42 42" version="1.1" xmlns="http://www.w3.org/2000/svg" xmlns:xlink="http://www.w3.org/1999/xlink">
    <title>ios-logo</title>
    <g id="ios-logo" stroke="none" stroke-width="1" fill="none" fill-rule="evenodd">
        <g id="4th" style="mix-blend-mode: multiply;">
            <rect id="Box" fill-opacity="0.05" fill="#001D2F" x="0" y="0" width="42" height="42" rx="5"></rect>
            <g id="Group" transform="translate(9.000000, 9.000000)">
                <g opacity="0.2" id="Rectangle">
                    <rect x="0" y="0" width="24" height="24"></rect>
                </g>
                <g id="icon-copy" transform="translate(3.000000, 8.000000)" fill="#001D2F" fill-rule="nonzero" stroke="#001D2F" stroke-linejoin="round" stroke-width="0.6">
                    <path d="M0.748597247,0 C0.317233424,0 0,0.308029359 0,0.711780989 C0,1.11062379 0.317233424,1.41803954 0.748597247,1.41803954 C1.17996107,1.41803954 1.49903531,1.11123739 1.49903531,0.712394594 C1.49903531,0.307415755 1.17996107,0.000613604301 0.748597247,0.000613604301 L0.748597247,0 Z M7.14358127,0.349754452 C4.91067522,0.349754452 3.50858939,1.91444542 3.50858939,4.42715503 C3.50858939,6.93495581 4.88367663,8.50946445 7.14358127,8.50946445 C9.39796348,8.50946445 10.7675283,6.92943337 10.7675283,4.42715503 C10.7675283,1.91935425 9.3869186,0.35098166 7.14358127,0.350368056 L7.14358127,0.349754452 Z M15.0774849,0.349754452 C13.3790282,0.349754452 12.245701,1.27200172 12.245701,2.65813383 C12.245701,3.80127865 12.8869175,4.48176582 14.2951394,4.81065772 L15.2977688,5.05425863 C16.3286241,5.29663233 16.781464,5.65190922 16.781464,6.24526458 C16.781464,6.93556942 16.069683,7.43688413 15.098961,7.43688413 C14.0589017,7.43688413 13.3360759,6.96809044 13.2329904,6.22992447 L12.0346212,6.22992447 C12.1205258,7.62157902 13.2802379,8.51069166 15.0056932,8.51069166 C16.8501877,8.51069166 18.0037638,7.57801312 18.0037638,6.08940908 C18.0037638,4.91926568 17.34598,4.27191314 15.7499952,3.90006894 L14.89279,3.68898906 C13.8791157,3.45152419 13.469228,3.13367717 13.469228,2.57836527 C13.469228,1.87701556 14.1055357,1.41865314 15.060304,1.41865314 C15.9665975,1.41865314 16.5912467,1.86535708 16.7047635,2.5826605 L17.8804293,2.5826605 C17.8104784,1.27200172 16.657516,0.350368056 15.0774849,0.350368056 L15.0774849,0.349754452 Z M7.14358127,1.47694555 C8.62236764,1.47694555 9.53357003,2.62070397 9.53357003,4.42715503 C9.53357003,6.22256122 8.62114043,7.38288695 7.14358127,7.38288695 C5.6500684,7.38288695 4.74438846,6.22317482 4.74438846,4.42715503 C4.74438846,2.62070397 5.67706699,1.47755916 7.14358127,1.47694555 Z M0.172422809,2.44889477 L0.172422809,8.32108793 L1.32599889,8.32108793 L1.32599889,2.44889477 L0.172422809,2.44889477 Z" id="Shape"></path>
                </g>
            </g>
        </g>
    </g>
</svg>