<?xml version="1.0" encoding="UTF-8"?>
<svg width="42px" height="42px" viewBox="0 0 42 42" version="1.1" xmlns="http://www.w3.org/2000/svg" xmlns:xlink="http://www.w3.org/1999/xlink">
    <title>linux-logo</title>
    <g id="linux-logo" stroke="none" stroke-width="1" fill="none" fill-rule="evenodd">
        <g id="5th" style="mix-blend-mode: multiply;">
            <rect id="Box" fill-opacity="0.05" fill="#001D2F" x="0" y="0" width="42" height="42" rx="5"></rect>
            <g id="Group" transform="translate(9.000000, 9.000000)">
                <g opacity="0.2" id="Rectangle">
                    <rect x="0" y="0" width="24" height="24"></rect>
                </g>
                <g id="icon-copy" transform="translate(5.000000, 4.000000)" fill="#001D2F">
                    <path d="M6.72875,-1 C9.10728221,-1 10.3172917,0.82252384 10.3172917,3.215625 L10.3126478,3.45000484 C10.3104275,3.50425271 10.3073109,3.56295053 10.3030893,3.6321136 L10.2869017,3.87701388 C10.2210119,4.83076199 10.2828161,5.21739932 10.7046818,5.68977016 L10.8006774,5.79254264 C11.8134972,6.83440973 12.5655008,8.37836154 12.8739756,10.0383216 L12.9297027,10.371746 L10.9513932,10.6655006 C10.7593765,9.37235096 10.2211028,8.15780555 9.51949698,7.35283614 L9.36671956,7.18673233 C8.42229396,6.21551451 8.20825191,5.37304372 8.27673124,3.98914618 L8.31507245,3.34405525 C8.31665677,3.29853069 8.31729167,3.25820383 8.31729167,3.215625 C8.31729167,1.79589013 7.78888454,1 6.72875,1 C5.6250916,1 5.07808137,1.75289282 5.05759529,2.74646658 C5.05152723,3.03755512 5.05351894,3.29225555 5.06347689,3.59092826 L5.11034984,4.67457625 C5.13156033,5.29285995 5.11156128,5.56683771 5.02193341,5.98540831 C4.88803603,6.61072173 4.60065549,7.19355336 4.10037028,7.85620157 L3.92564167,8.08020824 C3.04926348,9.17002314 2.71215591,9.95207716 2.6465378,10.8751033 L2.63653464,11.0752159 L0.637423697,11.0155882 C0.678512767,9.63801166 1.1084862,8.46861177 2.16213243,7.0882745 L2.36705708,6.82688702 C2.79444579,6.29539368 2.989556,5.92488524 3.06626559,5.56664422 L3.10014193,5.36672938 C3.11912564,5.20689325 3.12132171,5.02036463 3.1095045,4.69129414 L3.08680774,4.18054069 C3.05784661,3.59368341 3.04775896,3.19747734 3.05802499,2.70501082 C3.09854932,0.739581237 4.36243271,-1 6.72875,-1 Z" id="Path" fill-rule="nonzero"></path>
                    <path d="M0.995077267,10.285746 C0.869233527,10.4316732 0.765265329,10.483428 0.363205276,10.6541186 C-0.526598869,11.0438135 -0.897963013,11.7544812 -0.809548476,12.6589353 L-0.751833214,13.0968661 C-0.740694612,13.2165915 -0.744811359,13.2884245 -0.761280794,13.3441397 L-0.778867389,13.3873112 C-1.38267265,14.5204799 -0.707410634,15.7581163 0.605514981,15.8450736 L0.849776149,15.8481002 L0.995450055,15.8391261 C1.48045763,15.8077758 1.95164072,15.8974341 2.98504316,16.3675454 C4.69982385,17.1483056 6.47388893,15.7762701 6.03574772,14.0951203 C5.9021771,13.5851699 5.70313735,13.2474816 5.31790908,12.7806595 L5.11161956,12.5375899 C4.86617653,12.252531 4.76551675,12.1163663 4.68970388,11.9578489 C4.27620739,11.0919464 3.9840608,10.571953 3.62497255,10.1640716 C2.92456693,9.36849452 1.92684631,9.19948075 1.19645064,10.0351023 L0.995077267,10.285746 Z M2.28642049,11.8243202 L2.334,11.776 L2.37988921,11.8500066 C2.47412959,12.0064148 2.57849842,12.1995493 2.69680067,12.4348853 L2.88517972,12.8202248 C3.03460965,13.1326692 3.18929127,13.3576686 3.45400605,13.6752327 L3.64868127,13.9036964 C3.950128,14.253908 4.04963576,14.4057245 4.10070525,14.6006984 L4.08774006,14.6074188 C4.05993162,14.6166726 3.9828252,14.6242953 3.81350659,14.5472025 L3.55455088,14.4322204 C2.62976365,14.0322094 1.97030195,13.8667308 1.35960962,13.8381299 L1.176,13.833 L1.15667846,13.9110897 C1.2695013,13.5294165 1.27885392,13.2124794 1.22702706,12.7918162 L1.18836072,12.5215838 L1.178,12.48 L1.15521385,12.4905807 C1.68958884,12.263764 2.00949477,12.0821264 2.28642049,11.8243202 Z" id="Path" fill-rule="nonzero"></path>
                    <path d="M4.98270854,6.04590853 C4.98270854,6.36254215 4.88293063,6.69835049 4.61929116,7.34835415 L3.92995344,8.98751756 C3.88971127,9.08799308 3.86218311,9.1614026 3.8473283,9.20762716 L3.80561301,9.34579324 C3.76528202,9.50370979 3.79329575,9.5745536 3.97589916,9.77608672 L4.58544412,10.4183855 C4.74741139,10.5884467 4.86102789,10.7114311 4.96973803,10.8362457 C5.1148798,11.0028888 5.24222642,11.1634157 5.3657746,11.3375031 C5.44424788,11.448077 5.52100097,11.563929 5.59823397,11.688445 C5.68013586,11.8204882 5.73734044,11.9355093 5.77550569,12.0854305 C5.91954195,12.6512354 5.60768828,13.3442333 4.82331947,13.3716892 C4.50203136,13.3829356 4.34520926,13.3186256 4.0655213,13.1245009 L3.93729493,13.0331985 C3.65562842,12.8291254 3.22290584,12.4677662 2.62347872,11.9381333 L2.41747398,11.7553415 L2.745,11.387 L2.69015019,11.3294396 C1.84152839,10.4321972 1.57678646,9.7360205 1.94323413,8.59572409 L2.01453453,8.39421249 C2.04325781,8.31840861 2.0772696,8.23294224 2.11756596,8.13472593 L2.7111005,6.72593542 L2.98270854,6.04590853 L4.98270854,6.04590853 Z" id="Path" fill-rule="nonzero"></path>
                    <path d="M8.62482134,6.19174092 L9.95419529,9.94909746 C10.2297607,10.7279586 11.2773825,10.85564 11.7319536,10.1657662 C12.3323198,9.25462838 11.9806223,8.2324316 10.4481717,5.38436567 C9.86313821,4.29707855 8.2129973,5.02775709 8.62482134,6.19174092 Z" id="Path" fill-rule="nonzero"></path>
                    <path d="M9.249,8.857 L9.15015482,8.91055473 C8.76531892,9.14157865 8.59484491,9.52448819 8.47148439,10.0601314 L8.42498905,10.2840787 C8.39658946,10.4375804 8.37221593,10.6061128 8.34485718,10.8294158 L8.2330322,11.7840619 C8.2158078,11.9129431 8.20029925,12.0089177 8.18220531,12.1014499 C8.16005604,12.2143898 8.13509596,12.3236877 8.10499882,12.4409437 L7.95148409,12.9862624 C7.9069904,13.141542 7.87533337,13.2603054 7.84736492,13.3818381 C7.74162548,13.8413131 7.71398476,14.2596338 7.77874183,14.7371553 C8.01269588,16.4427642 10.0388818,17.0180086 11.3378587,15.7599473 L11.4574304,15.6366116 C11.4177475,15.6801156 11.9068822,15.125157 12.0528802,14.9766474 C12.3604651,14.6637714 12.6421132,14.4581682 12.9405209,14.3430465 C14.3230493,13.8094652 15.2954015,12.2039052 14.2887703,11.127436 L13.9790407,10.8217021 C13.897592,10.7438852 13.8358724,10.686095 13.8390318,10.6892678 L13.7895256,10.6363834 C13.7798202,10.6244021 13.7753612,10.6163881 13.7714978,10.6073022 L13.6779892,10.3865007 C13.6317772,10.2786713 13.5891538,10.1825149 13.5455964,10.0890788 C13.4707168,9.92845319 13.3982679,9.78712011 13.3237749,9.66140004 C13.2049567,9.46087337 13.0860684,9.30294277 12.9239162,9.16887039 C12.5709525,8.87702927 12.2610567,8.84997045 11.6924116,8.88065199 L11.5046592,8.89393262 L11.301,8.914 L11.2162663,8.88119446 C11.0543407,8.81835511 10.9189076,8.77079453 10.779094,8.73064375 C10.2192088,8.5698595 9.71855542,8.5602897 9.2629815,8.84897476 L9.249,8.857 Z M9.97276525,14.2962185 L9.86730824,14.4053471 C9.79473837,14.4742898 9.77014159,14.4803082 9.76290117,14.4726912 C9.73782593,14.3004489 9.7388206,14.1583974 9.76364373,13.9981987 L9.80563792,13.7930232 L9.94888511,13.2752371 L9.98185659,13.1627232 C10.0264365,13.0032595 10.0642447,12.8565582 10.0977014,12.7091448 L10.1449254,12.4858062 C10.1703062,12.3560093 10.190449,12.2337802 10.2112935,12.080707 L10.3426513,10.9735348 L10.382,10.704 L10.8308435,10.8778422 C10.9911584,10.9369328 11.16394,10.9539619 11.3327061,10.927305 L11.5372524,10.9005072 L11.708,10.884 L11.7844227,11.0474882 L11.9309752,11.389911 C12.0497554,11.6692558 12.2056947,11.8834323 12.4218203,12.1004771 L12.57,12.242 L12.5288458,12.2853005 C12.4429593,12.3634121 12.3350778,12.4329291 12.2205297,12.4771384 C11.6190427,12.7091842 11.1173234,13.0754393 10.6266584,13.574545 L10.274933,13.9557054 C10.1185707,14.1295636 9.97724109,14.2899917 9.97276525,14.2962185 Z" id="Path" fill-rule="nonzero"></path>
                    <polygon id="Line-2" fill-rule="nonzero" points="8.73046571 13.875 8.73046571 15.875 5.25 15.875 5.25 13.875"></polygon>
                    <g id="Shape" transform="translate(5.250000, 2.625000)">
                        <ellipse id="Oval" cx="2.1875" cy="0.875" rx="1" ry="1"></ellipse>
                        <ellipse id="Oval-Copy" cx="0.4375" cy="0.875" rx="1" ry="1"></ellipse>
                    </g>
                    <path d="M6.4712911,3.85886395 C6.28333892,3.85886395 6.12834964,3.91040239 5.97720966,4.00568071 L5.75825968,4.15379202 L5.51371763,4.28192417 C5.32147715,4.39611686 5.18751844,4.55824427 5.18751844,4.81716903 C5.18314516,5.08827956 5.3201458,5.26342515 5.53693419,5.41400771 L5.7982245,5.57976765 C5.81982668,5.59447859 5.92198153,5.66671967 5.95172148,5.68669648 C6.03351516,5.74163863 6.10366232,5.78081896 6.18631878,5.81116928 C6.27040879,5.84204598 6.35794182,5.85886395 6.44945797,5.85886395 C6.6305291,5.85886395 6.78714188,5.81518771 6.94399509,5.73313567 L7.25489096,5.54675332 L7.38550582,5.4828627 C7.5006917,5.42847139 7.5688926,5.39247985 7.64261044,5.3405154 C7.81693713,5.21763077 7.9375,5.05944772 7.9375,4.81716903 C7.9375,4.49788576 7.76006998,4.33255813 7.49425457,4.21391794 L7.17764281,4.09045089 L6.8576369,3.93704795 C6.73522951,3.88501494 6.61264876,3.85886395 6.4712911,3.85886395 Z" id="Path" fill-rule="nonzero"></path>
                </g>
            </g>
        </g>
    </g>
</svg>