<?xml version="1.0" encoding="UTF-8"?>
<svg width="42px" height="42px" viewBox="0 0 42 42" version="1.1" xmlns="http://www.w3.org/2000/svg" xmlns:xlink="http://www.w3.org/1999/xlink">
    <title>router-icon</title>
    <g id="router-icon" stroke="none" stroke-width="1" fill="none" fill-rule="evenodd">
        <g id="6th" style="mix-blend-mode: multiply;">
            <rect id="Box" fill-opacity="0.05" fill="#001D2F" x="0" y="0" width="42" height="42" rx="5"></rect>
            <g id="Group" transform="translate(9.000000, 9.000000)">
                <g opacity="0.2" id="Rectangle">
                    <rect x="0" y="0" width="24" height="24"></rect>
                </g>
                <g id="icon-(outlines)" transform="translate(3.000000, 4.000000)" fill="#001D2F" fill-rule="nonzero">
                    <path d="M15,8 L3,8 C1.34314575,8 0,9.34314575 0,11 L0,14 C0,15.6568542 1.34314575,17 3,17 L15,17 C16.6568542,17 18,15.6568542 18,14 L18,11 C18,9.34314575 16.6568542,8 15,8 Z M3,10 L15,10 C15.5522847,10 16,10.4477153 16,11 L16,14 C16,14.5522847 15.5522847,15 15,15 L3,15 C2.44771525,15 2,14.5522847 2,14 L2,11 C2,10.4477153 2.44771525,10 3,10 Z" id="Rectangle"></path>
                    <path d="M10.301395,3.29335777 C10.6661617,2.93720805 11.2336837,2.91626001 11.6223012,3.22595177 L11.7155076,3.31026039 L16.2262193,7.93010792 C16.6120481,8.32527184 16.6044806,8.9583916 16.2093166,9.34422046 C15.8445499,9.70037019 15.277028,9.72131822 14.8884104,9.41162647 L14.7952041,9.32731784 L10.2844924,4.70747032 C9.89866355,4.31230639 9.90623111,3.67918664 10.301395,3.29335777 Z" id="Line-4" transform="translate(13.255356, 6.318789) scale(-1, 1) translate(-13.255356, -6.318789) "></path>
                    <path d="M1.83390335,3.27289584 C2.20910158,2.92775287 2.77699551,2.92369381 3.15623002,3.24480713 L3.24688755,3.33185068 L7.59578884,8.05945687 C7.96969372,8.46592161 7.94329874,9.09853619 7.536834,9.47244107 C7.16163578,9.81758403 6.59374185,9.8216431 6.21450734,9.50052977 L6.12384981,9.41348623 L1.77494852,4.68588003 C1.40104363,4.27941529 1.42743861,3.64680072 1.83390335,3.27289584 Z" id="Line-4"></path>
                    <path d="M7.0020878,11.5288113 C7.55437255,11.5288113 8.0020878,11.9765266 8.0020878,12.5288113 C8.0020878,13.0416471 7.61604761,13.4643185 7.11870892,13.5220836 L7.0020878,13.5288113 L4.47577201,13.5288113 C3.92348726,13.5288113 3.47577201,13.0810961 3.47577201,12.5288113 C3.47577201,12.0159755 3.8618122,11.5933041 4.35915088,11.535539 L4.47577201,11.5288113 L7.0020878,11.5288113 Z" id="Line"></path>
                    <path d="M12.8968246,11.5288113 C13.4491094,11.5288113 13.8968246,11.9765266 13.8968246,12.5288113 C13.8968246,13.0416471 13.5107844,13.4643185 13.0134458,13.5220836 L12.8968246,13.5288113 C12.3361188,13.5288113 11.8884036,13.0810961 11.8884036,12.5288113 C11.8884036,12.0159755 12.2744438,11.5933041 12.7717825,11.535539 L12.8968246,11.5288113 Z" id="Path-Copy-2"></path>
                    <g id="Group-2" transform="translate(5.000000, 0.000000)">
                        <path d="M1.27322826,2.80943346 C2.76311404,1.52968759 4.93613408,1.52968759 6.42601986,2.80943346 C6.84497019,3.16929324 6.89287256,3.80064358 6.53301278,4.21959392 C6.173153,4.63854426 5.54180266,4.68644662 5.12285232,4.32658684 C4.42602764,3.72804531 3.44102327,3.69283699 2.71029509,4.22096187 L2.5763958,4.32658684 C2.15744546,4.68644662 1.52609512,4.63854426 1.16623534,4.21959392 C0.806375562,3.80064358 0.854277926,3.16929324 1.27322826,2.80943346 Z" id="Path"></path>
                        <path d="M-0.672643267,0.751867117 C1.89696783,-1.58395571 5.76076136,-1.58395571 8.33037246,0.751867117 C8.7390449,1.12335774 8.76918673,1.75580486 8.39769611,2.1644773 C8.02620549,2.57314974 7.39375837,2.60329156 6.98508593,2.23180095 C5.1782997,0.589399685 2.4794295,0.589399685 0.672643267,2.23180095 C0.263970825,2.60329156 -0.368476296,2.57314974 -0.739966915,2.1644773 C-1.11145753,1.75580486 -1.08131571,1.12335774 -0.672643267,0.751867117 Z" id="Path"></path>
                    </g>
                </g>
            </g>
        </g>
    </g>
</svg>